<svg version="1.0" xmlns="http://www.w3.org/2000/svg" width="261.000000" height="142.000000" preserveAspectRatio="xMidYMid meet"><rect id="backgroundrect" width="100%" height="100%" x="0" y="0" fill="none" stroke="none"/>


<g class="currentLayer" style=""><title>Layer 1</title><g transform="translate(0, 142) scale(0.1, -0.1)" fill="#ffffff" stroke="#dadada" id="svg_1" class="selected" stroke-opacity="1" fill-opacity="1">
<path d="M150 1265 l0 -155 -70 0 -70 0 0 -85 0 -85 70 0 70 0 0 -299 c0 -269 2 -305 20 -362 49 -159 174 -241 370 -243 l85 -1 3 86 3 86 -65 5 c-108 9 -180 64 -206 157 -5 20 -10 155 -10 304 l0 267 130 0 130 0 0 85 0 85 -130 0 -130 0 0 155 0 155 -100 0 -100 0 0 -155z" id="svg_2" stroke="#dadada" stroke-opacity="1" fill="#ffffff" fill-opacity="1"/>
<path d="M1050 1265 l0 -155 -70 0 -70 0 0 -85 0 -85 70 0 70 0 0 -299 c0 -269 2 -305 20 -362 49 -159 174 -241 370 -243 l85 -1 3 86 3 86 -65 5 c-108 9 -180 64 -206 157 -5 20 -10 155 -10 304 l0 267 130 0 130 0 0 85 0 85 -130 0 -130 0 0 155 0 155 -100 0 -100 0 0 -155z" id="svg_3" stroke="#dadada" stroke-opacity="1" fill="#ffffff" fill-opacity="1"/>
<path d="M2150 1143 c-192 -32 -315 -169 -296 -330 17 -142 87 -208 335 -314 195 -83 246 -147 191 -237 -13 -21 -38 -41 -67 -54 -89 -39 -249 -8 -348 68 -25 19 -47 34 -49 34 -2 0 -24 -32 -50 -71 -56 -83 -56 -81 49 -144 193 -115 457 -109 598 14 20 18 49 58 64 89 23 48 28 69 27 132 -1 154 -71 226 -330 335 -166 71 -214 109 -214 173 0 48 36 97 87 118 73 31 233 5 315 -50 42 -29 41 -30 88 63 l32 64 -23 19 c-93 72 -278 113 -409 91z" id="svg_4" stroke="#dadada" stroke-opacity="1" fill="#ffffff" fill-opacity="1"/>
</g></g></svg>